<svg xmlns="http://www.w3.org/2000/svg" width="332.16999999999996" height="35" viewBox="0 0 332.16999999999996 35"><rect class="svg__rect" x="0" y="0" width="101.28" height="35" fill="#A6DF7C"/><rect class="svg__rect" x="99.28" y="0" width="232.89" height="35" fill="#79ADCC"/><path class="svg__text" d="M16.25 14.66L13.61 14.66L13.61 13.47L20.38 13.47L20.38 14.66L17.72 14.66L17.72 22L16.25 22L16.25 14.66ZM29.72 22L24.14 22L24.14 13.47L29.67 13.47L29.67 14.66L25.62 14.66L25.62 17.02L29.12 17.02L29.12 18.19L25.62 18.19L25.62 20.82L29.72 20.82L29.72 22ZM33.48 19.42L33.48 19.42L34.96 19.42Q34.96 20.15 35.44 20.55Q35.92 20.95 36.82 20.95L36.82 20.95Q37.59 20.95 37.98 20.63Q38.37 20.32 38.37 19.80L38.37 19.80Q38.37 19.24 37.97 18.94Q37.58 18.63 36.55 18.32Q35.52 18.01 34.91 17.63L34.91 17.63Q33.74 16.90 33.74 15.72L33.74 15.72Q33.74 14.69 34.58 14.02Q35.42 13.35 36.76 13.35L36.76 13.35Q37.65 13.35 38.35 13.68Q39.05 14.01 39.45 14.61Q39.85 15.22 39.85 15.96L39.85 15.96L38.37 15.96Q38.37 15.29 37.95 14.91Q37.53 14.54 36.75 14.54L36.75 14.54Q36.03 14.54 35.62 14.85Q35.22 15.16 35.22 15.71L35.22 15.71Q35.22 16.18 35.66 16.50Q36.09 16.81 37.09 17.10Q38.08 17.40 38.69 17.78Q39.29 18.16 39.57 18.65Q39.85 19.13 39.85 19.79L39.85 19.79Q39.85 20.86 39.03 21.49Q38.22 22.12 36.82 22.12L36.82 22.12Q35.89 22.12 35.11 21.77Q34.34 21.43 33.91 20.83Q33.48 20.22 33.48 19.42ZM43.71 19.42L43.71 19.42L45.19 19.42Q45.19 20.15 45.67 20.55Q46.15 20.95 47.05 20.95L47.05 20.95Q47.82 20.95 48.21 20.63Q48.60 20.32 48.60 19.80L48.60 19.80Q48.60 19.24 48.20 18.94Q47.81 18.63 46.78 18.32Q45.75 18.01 45.14 17.63L45.14 17.63Q43.97 16.90 43.97 15.72L43.97 15.72Q43.97 14.69 44.81 14.02Q45.65 13.35 46.99 13.35L46.99 13.35Q47.89 13.35 48.58 13.68Q49.28 14.01 49.68 14.61Q50.08 15.22 50.08 15.96L50.08 15.96L48.60 15.96Q48.60 15.29 48.18 14.91Q47.76 14.54 46.98 14.54L46.98 14.54Q46.26 14.54 45.85 14.85Q45.45 15.16 45.45 15.71L45.45 15.71Q45.45 16.18 45.89 16.50Q46.32 16.81 47.32 17.10Q48.31 17.40 48.92 17.78Q49.52 18.16 49.80 18.65Q50.08 19.13 50.08 19.79L50.08 19.79Q50.08 20.86 49.27 21.49Q48.45 22.12 47.05 22.12L47.05 22.12Q46.12 22.12 45.35 21.77Q44.57 21.43 44.14 20.83Q43.71 20.22 43.71 19.42ZM65.70 22L60.35 22L60.35 13.47L61.83 13.47L61.83 20.82L65.70 20.82L65.70 22ZM70.61 22L69.07 22L72.29 13.47L73.62 13.47L76.85 22L75.30 22L74.60 20.01L71.30 20.01L70.61 22ZM72.95 15.28L71.72 18.82L74.19 18.82L72.95 15.28ZM83.91 22L80.80 22L80.80 13.47L83.73 13.47Q85.17 13.47 85.93 14.05Q86.69 14.63 86.69 15.78L86.69 15.78Q86.69 16.36 86.37 16.83Q86.05 17.30 85.44 17.56L85.44 17.56Q86.14 17.75 86.51 18.26Q86.89 18.78 86.89 19.51L86.89 19.51Q86.89 20.71 86.12 21.36Q85.35 22 83.91 22L83.91 22ZM82.29 18.15L82.29 20.82L83.93 20.82Q84.63 20.82 85.02 20.47Q85.41 20.13 85.41 19.51L85.41 19.51Q85.41 18.18 84.06 18.15L84.06 18.15L82.29 18.15ZM82.29 14.66L82.29 17.06L83.74 17.06Q84.43 17.06 84.82 16.75Q85.21 16.43 85.21 15.86L85.21 15.86Q85.21 15.23 84.85 14.95Q84.49 14.66 83.73 14.66L83.73 14.66L82.29 14.66Z" fill="#FFFFFF"/><path class="svg__text" d="M115.26 15.48L112.68 15.48L112.68 13.60L120.20 13.60L120.20 15.48L117.63 15.48L117.63 22L115.26 22L115.26 15.48ZM131.32 22L124.57 22L124.57 13.60L131.16 13.60L131.16 15.44L126.93 15.44L126.93 16.85L130.66 16.85L130.66 18.63L126.93 18.63L126.93 20.17L131.32 20.17L131.32 22ZM137.54 22L135.11 22L138.82 13.60L141.17 13.60L144.88 22L142.41 22L141.75 20.37L138.20 20.37L137.54 22ZM139.98 15.93L138.89 18.61L141.05 18.61L139.98 15.93ZM148.61 17.80L148.61 17.80Q148.61 16.54 149.20 15.54Q149.80 14.55 150.85 13.99Q151.91 13.43 153.22 13.43L153.22 13.43Q154.38 13.43 155.30 13.84Q156.22 14.25 156.84 15.02L156.84 15.02L155.33 16.39Q154.51 15.40 153.35 15.40L153.35 15.40Q152.66 15.40 152.13 15.70Q151.59 16 151.30 16.54Q151.00 17.09 151.00 17.80L151.00 17.80Q151.00 18.51 151.30 19.05Q151.59 19.60 152.13 19.90Q152.66 20.20 153.35 20.20L153.35 20.20Q154.51 20.20 155.33 19.22L155.33 19.22L156.84 20.58Q156.23 21.35 155.30 21.76Q154.38 22.17 153.22 22.17L153.22 22.17Q151.91 22.17 150.85 21.61Q149.80 21.05 149.20 20.05Q148.61 19.06 148.61 17.80ZM163.75 22L161.37 22L161.37 13.60L163.75 13.60L163.75 16.76L166.99 16.76L166.99 13.60L169.37 13.60L169.37 22L166.99 22L166.99 18.72L163.75 18.72L163.75 22ZM176.91 22L174.53 22L174.53 13.60L176.91 13.60L176.91 22ZM184.41 22L182.08 22L182.08 13.60L184.04 13.60L187.75 18.07L187.75 13.60L190.07 13.60L190.07 22L188.12 22L184.41 17.52L184.41 22ZM194.81 17.80L194.81 17.80Q194.81 16.54 195.41 15.54Q196.00 14.55 197.07 13.99Q198.14 13.43 199.48 13.43L199.48 13.43Q200.66 13.43 201.60 13.83Q202.54 14.22 203.16 14.97L203.16 14.97L201.65 16.33Q200.80 15.40 199.62 15.40L199.62 15.40Q199.61 15.40 199.61 15.40L199.61 15.40Q198.53 15.40 197.87 16.06Q197.20 16.71 197.20 17.80L197.20 17.80Q197.20 18.50 197.51 19.04Q197.81 19.59 198.35 19.89Q198.89 20.20 199.58 20.20L199.58 20.20Q200.27 20.20 200.87 19.93L200.87 19.93L200.87 17.62L202.96 17.62L202.96 21.10Q202.24 21.61 201.31 21.89Q200.37 22.17 199.44 22.17L199.44 22.17Q198.12 22.17 197.06 21.61Q196.00 21.05 195.41 20.05Q194.81 19.06 194.81 17.80ZM217.31 22L214.93 22L214.93 13.60L218.77 13.60Q219.92 13.60 220.75 13.98Q221.59 14.35 222.05 15.06Q222.50 15.76 222.50 16.71L222.50 16.71Q222.50 17.62 222.08 18.30Q221.65 18.98 220.86 19.36L220.86 19.36L222.67 22L220.13 22L218.60 19.77L217.31 19.77L217.31 22ZM217.31 15.47L217.31 17.93L218.63 17.93Q219.36 17.93 219.73 17.61Q220.10 17.29 220.10 16.71L220.10 16.71Q220.10 16.12 219.73 15.79Q219.36 15.47 218.63 15.47L218.63 15.47L217.31 15.47ZM234.04 22L227.29 22L227.29 13.60L233.88 13.60L233.88 15.44L229.65 15.44L229.65 16.85L233.38 16.85L233.38 18.63L229.65 18.63L229.65 20.17L234.04 20.17L234.04 22ZM238.25 21.24L238.25 21.24L239.03 19.49Q239.60 19.86 240.34 20.09Q241.09 20.32 241.81 20.32L241.81 20.32Q243.17 20.32 243.18 19.64L243.18 19.64Q243.18 19.28 242.79 19.11Q242.40 18.93 241.53 18.74L241.53 18.74Q240.58 18.53 239.95 18.30Q239.31 18.06 238.86 17.55Q238.40 17.03 238.40 16.16L238.40 16.16Q238.40 15.39 238.82 14.77Q239.24 14.15 240.07 13.79Q240.91 13.43 242.12 13.43L242.12 13.43Q242.94 13.43 243.75 13.62Q244.55 13.80 245.17 14.17L245.17 14.17L244.44 15.93Q243.24 15.28 242.10 15.28L242.10 15.28Q241.40 15.28 241.07 15.49Q240.75 15.70 240.75 16.04L240.75 16.04Q240.75 16.37 241.13 16.54Q241.52 16.71 242.37 16.89L242.37 16.89Q243.33 17.10 243.96 17.33Q244.59 17.56 245.05 18.07Q245.51 18.58 245.51 19.46L245.51 19.46Q245.51 20.21 245.10 20.83Q244.68 21.44 243.84 21.80Q243.00 22.17 241.79 22.17L241.79 22.17Q240.77 22.17 239.81 21.92Q238.85 21.67 238.25 21.24ZM249.66 17.80L249.66 17.80Q249.66 16.55 250.27 15.55Q250.87 14.56 251.93 14.00Q253.00 13.43 254.33 13.43L254.33 13.43Q255.66 13.43 256.72 14.00Q257.78 14.56 258.39 15.55Q259.00 16.55 259.00 17.80L259.00 17.80Q259.00 19.05 258.39 20.04Q257.78 21.04 256.72 21.60Q255.66 22.17 254.33 22.17L254.33 22.17Q253.00 22.17 251.93 21.60Q250.87 21.04 250.27 20.04Q249.66 19.05 249.66 17.80ZM252.06 17.80L252.06 17.80Q252.06 18.51 252.36 19.05Q252.66 19.60 253.18 19.90Q253.69 20.20 254.33 20.20L254.33 20.20Q254.97 20.20 255.48 19.90Q256.00 19.60 256.30 19.05Q256.59 18.51 256.59 17.80L256.59 17.80Q256.59 17.09 256.30 16.54Q256.00 16 255.48 15.70Q254.97 15.40 254.33 15.40L254.33 15.40Q253.69 15.40 253.18 15.70Q252.66 16 252.36 16.54Q252.06 17.09 252.06 17.80ZM263.66 18.26L263.66 18.26L263.66 13.60L266.03 13.60L266.03 18.19Q266.03 20.20 267.63 20.20L267.63 20.20Q269.21 20.20 269.21 18.19L269.21 18.19L269.21 13.60L271.55 13.60L271.55 18.26Q271.55 20.13 270.51 21.15Q269.47 22.17 267.60 22.17L267.60 22.17Q265.73 22.17 264.69 21.15Q263.66 20.13 263.66 18.26ZM279.02 22L276.64 22L276.64 13.60L280.48 13.60Q281.63 13.60 282.46 13.98Q283.30 14.35 283.76 15.06Q284.22 15.76 284.22 16.71L284.22 16.71Q284.22 17.62 283.79 18.30Q283.36 18.98 282.57 19.36L282.57 19.36L284.38 22L281.84 22L280.31 19.77L279.02 19.77L279.02 22ZM279.02 15.47L279.02 17.93L280.34 17.93Q281.07 17.93 281.44 17.61Q281.81 17.29 281.81 16.71L281.81 16.71Q281.81 16.12 281.44 15.79Q281.07 15.47 280.34 15.47L280.34 15.47L279.02 15.47ZM288.58 17.80L288.58 17.80Q288.58 16.54 289.17 15.54Q289.77 14.55 290.82 13.99Q291.87 13.43 293.19 13.43L293.19 13.43Q294.35 13.43 295.27 13.84Q296.19 14.25 296.81 15.02L296.81 15.02L295.30 16.39Q294.48 15.40 293.32 15.40L293.32 15.40Q292.63 15.40 292.10 15.70Q291.56 16 291.27 16.54Q290.97 17.09 290.97 17.80L290.97 17.80Q290.97 18.51 291.27 19.05Q291.56 19.60 292.10 19.90Q292.63 20.20 293.32 20.20L293.32 20.20Q294.48 20.20 295.30 19.22L295.30 19.22L296.81 20.58Q296.20 21.35 295.27 21.76Q294.35 22.17 293.19 22.17L293.19 22.17Q291.87 22.17 290.82 21.61Q289.77 21.05 289.17 20.05Q288.58 19.06 288.58 17.80ZM308.09 22L301.34 22L301.34 13.60L307.93 13.60L307.93 15.44L303.70 15.44L303.70 16.85L307.43 16.85L307.43 18.63L303.70 18.63L303.70 20.17L308.09 20.17L308.09 22ZM312.31 21.24L312.31 21.24L313.09 19.49Q313.65 19.86 314.39 20.09Q315.14 20.32 315.86 20.32L315.86 20.32Q317.22 20.32 317.23 19.64L317.23 19.64Q317.23 19.28 316.84 19.11Q316.45 18.93 315.58 18.74L315.58 18.74Q314.63 18.53 314.00 18.30Q313.36 18.06 312.91 17.55Q312.45 17.03 312.45 16.16L312.45 16.16Q312.45 15.39 312.87 14.77Q313.29 14.15 314.13 13.79Q314.96 13.43 316.17 13.43L316.17 13.43Q316.99 13.43 317.80 13.62Q318.60 13.80 319.22 14.17L319.22 14.17L318.49 15.93Q317.29 15.28 316.16 15.28L316.16 15.28Q315.45 15.28 315.12 15.49Q314.80 15.70 314.80 16.04L314.80 16.04Q314.80 16.37 315.19 16.54Q315.57 16.71 316.42 16.89L316.42 16.89Q317.38 17.10 318.01 17.33Q318.64 17.56 319.10 18.07Q319.57 18.58 319.57 19.46L319.57 19.46Q319.57 20.21 319.15 20.83Q318.73 21.44 317.89 21.80Q317.05 22.17 315.84 22.17L315.84 22.17Q314.83 22.17 313.86 21.92Q312.90 21.67 312.31 21.24Z" fill="#FFFFFF" x="112.28"/></svg>